<?xml version="1.0" encoding="UTF-8" standalone="no"?>
<svg
   xmlns:dc="http://purl.org/dc/elements/1.1/"
   xmlns:cc="http://creativecommons.org/ns#"
   xmlns:rdf="http://www.w3.org/1999/02/22-rdf-syntax-ns#"
   xmlns:svg="http://www.w3.org/2000/svg"
   xmlns="http://www.w3.org/2000/svg"
   viewBox="0 0 418.37332 399.66666"
   height="399.66666"
   width="418.37332"
   xml:space="preserve"
   id="svg2"
   version="1.1"><metadata
     id="metadata8"><rdf:RDF><cc:Work
         rdf:about=""><dc:format>image/svg+xml</dc:format><dc:type
           rdf:resource="http://purl.org/dc/dcmitype/StillImage" /></cc:Work></rdf:RDF></metadata><defs
     id="defs6" /><g
     transform="matrix(1.3333333,0,0,-1.3333333,0,399.66667)"
     id="g10"><g
       transform="scale(0.1)"
       id="g12"><path
         id="path14"
         style="fill:#6198f5;fill-opacity:1;fill-rule:nonzero;stroke:none"
         d="m 2725.17,1504.73 c 0,608.93 -493.64,1102.57 -1102.57,1102.57 -608.93,0 -1102.565,-493.64 -1102.565,-1102.57 0,-608.921 493.635,-1102.57 1102.565,-1102.57 608.93,0 1102.57,493.649 1102.57,1102.57" /><path
         id="path16"
         style="fill:#6198f5;fill-opacity:1;fill-rule:nonzero;stroke:none"
         d="m 1083.03,241.48 c -0.56,-0.871 -1.32,-1.5 -2.24,-1.898 -0.94,-0.391 -2.18,-0.402 -3.73,-0.012 -1.56,0.371 -3.47,1.11 -5.74,2.192 -2.27,1.09 -5.03,2.679 -8.27,4.758 -3.16,2.031 -5.7,3.851 -7.63,5.46 -1.94,1.622 -3.38,3.032 -4.33,4.258 -0.94,1.231 -1.45,2.364 -1.52,3.403 -0.08,1.039 0.16,2 0.72,2.871 l 88.93,138.429 -0.26,0.168 -138.14,-106.629 c -1.086,-0.91 -2.261,-1.488 -3.523,-1.73 -1.274,-0.238 -2.727,-0.141 -4.363,0.301 -1.645,0.429 -3.555,1.258 -5.743,2.48 -2.187,1.219 -4.773,2.789 -7.753,4.699 -2.977,1.911 -5.45,3.661 -7.411,5.219 -1.964,1.582 -3.472,3.039 -4.515,4.403 -1.059,1.347 -1.746,2.628 -2.082,3.839 -0.34,1.207 -0.332,2.379 0.023,3.508 l 41.257,168.871 -0.26,0.168 -88.93,-138.429 c -0.567,-0.879 -1.313,-1.52 -2.247,-1.911 -0.933,-0.386 -2.199,-0.378 -3.789,0.032 -1.597,0.402 -3.511,1.14 -5.738,2.199 -2.23,1.051 -4.965,2.633 -8.207,4.723 -3.152,2.019 -5.699,3.839 -7.637,5.457 -1.933,1.613 -3.398,3.043 -4.382,4.293 -0.993,1.257 -1.5,2.386 -1.532,3.398 -0.035,1.02 0.231,1.949 0.797,2.832 l 97.371,151.578 c 2.871,4.469 6.25,7.121 10.133,7.969 3.887,0.851 7.801,0 11.751,-2.527 l 22.61,-14.52 c 4.03,-2.594 7.28,-5.141 9.75,-7.66 2.47,-2.512 4.26,-5.223 5.38,-8.102 1.12,-2.89 1.58,-6.019 1.38,-9.422 -0.21,-3.398 -0.96,-7.277 -2.28,-11.628 l -28.3,-125.008 0.53,-0.34 103.07,76.609 c 3.5,2.949 6.74,5.25 9.74,6.918 2.99,1.672 5.89,2.711 8.7,3.141 2.81,0.422 5.65,0.18 8.53,-0.75 2.88,-0.918 5.93,-2.41 9.17,-4.5 l 23.28,-14.942 c 2.36,-1.519 4.2,-3.148 5.52,-4.847 1.31,-1.711 2.14,-3.512 2.47,-5.403 0.34,-1.886 0.24,-3.859 -0.28,-5.937 -0.54,-2.07 -1.5,-4.211 -2.91,-6.402 L 1083.03,241.48" /><path
         id="path18"
         style="fill:#6198f5;fill-opacity:1;fill-rule:nonzero;stroke:none"
         d="m 1242.57,242.262 -14,5.386 c -5.93,2.293 -11.16,3.793 -15.67,4.524 -4.52,0.738 -8.43,0.726 -11.73,0 -3.29,-0.742 -6.03,-2.121 -8.2,-4.133 -2.17,-2.008 -3.87,-4.617 -5.1,-7.828 -2.1,-5.441 -2.02,-10.379 0.24,-14.82 2.25,-4.442 6.44,-7.84 12.56,-10.2 5.15,-1.98 10.4,-2.492 15.74,-1.531 5.33,0.949 11.21,3.102 17.62,6.442 z m 14.57,-69.563 c -0.52,-1.367 -1.42,-2.25 -2.69,-2.648 -1.27,-0.41 -3.02,-0.371 -5.24,0.09 -2.22,0.468 -5.37,1.488 -9.45,3.058 -4.38,1.68 -7.5,3.071 -9.36,4.18 -1.86,1.109 -3.06,2.203 -3.58,3.312 -0.53,1.09 -0.53,2.321 -0.01,3.68 l 3.99,10.348 c -7.56,-3.668 -15.38,-5.797 -23.47,-6.367 -8.09,-0.571 -16.31,0.757 -24.67,3.98 -6.9,2.656 -12.9,5.988 -17.99,10.02 -5.09,4.019 -9.07,8.617 -11.94,13.796 -2.86,5.172 -4.44,10.84 -4.76,16.981 -0.31,6.152 0.88,12.723 3.58,19.73 2.91,7.571 6.93,13.59 12.05,18.039 5.12,4.454 11.31,7.372 18.6,8.743 7.28,1.39 15.64,1.269 25.06,-0.352 9.42,-1.617 19.92,-4.648 31.49,-9.098 l 12.69,-4.882 3.03,7.871 c 1.57,4.082 2.53,7.808 2.88,11.191 0.36,3.379 -0.03,6.449 -1.13,9.231 -1.11,2.769 -3.07,5.25 -5.85,7.437 -2.78,2.191 -6.51,4.18 -11.18,5.981 -6.12,2.351 -11.85,3.781 -17.18,4.261 -5.34,0.5 -10.17,0.629 -14.51,0.391 -4.33,-0.223 -7.99,-0.543 -11,-0.953 -3,-0.399 -5.28,-0.309 -6.83,0.293 -1.07,0.41 -1.89,1.109 -2.45,2.117 -0.57,1 -0.87,2.23 -0.92,3.703 -0.05,1.469 0.14,3.18 0.56,5.137 0.42,1.961 1.06,4.062 1.91,6.301 1.17,3 2.32,5.3 3.49,6.859 1.15,1.562 2.69,2.781 4.59,3.672 1.9,0.879 4.88,1.527 8.94,1.918 4.06,0.39 8.65,0.441 13.78,0.133 5.13,-0.301 10.57,-1.02 16.32,-2.172 5.76,-1.168 11.5,-2.84 17.24,-5.051 10.2,-3.93 18.54,-8.277 25.02,-13.059 6.47,-4.781 11.25,-10.14 14.33,-16.058 3.07,-5.93 4.42,-12.563 4.06,-19.91 -0.37,-7.332 -2.28,-15.461 -5.72,-24.411 l -33.68,-87.492" /><path
         id="path20"
         style="fill:#6198f5;fill-opacity:1;fill-rule:nonzero;stroke:none"
         d="m 1427.57,258.859 c -0.91,-3.629 -1.75,-6.589 -2.54,-8.871 -0.78,-2.269 -1.54,-4.008 -2.27,-5.218 -0.73,-1.219 -1.49,-1.989 -2.27,-2.329 -0.79,-0.351 -1.69,-0.382 -2.69,-0.14 -0.81,0.199 -1.68,0.597 -2.6,1.211 -0.92,0.617 -1.97,1.269 -3.12,1.988 -1.17,0.73 -2.47,1.449 -3.89,2.18 -1.43,0.73 -3.05,1.332 -4.87,1.789 -2.12,0.519 -4.36,0.621 -6.69,0.301 -2.34,-0.329 -4.87,-1.122 -7.6,-2.372 -2.73,-1.25 -5.71,-3.089 -8.94,-5.5 -3.23,-2.41 -6.82,-5.488 -10.76,-9.226 l -21.06,-84.281 c -0.26,-1.012 -0.78,-1.821 -1.58,-2.43 -0.79,-0.602 -1.99,-0.973 -3.58,-1.109 -1.59,-0.153 -3.63,-0.043 -6.12,0.32 -2.49,0.348 -5.6,1 -9.34,1.918 -3.74,0.941 -6.79,1.84 -9.15,2.699 -2.36,0.859 -4.22,1.723 -5.56,2.602 -1.33,0.871 -2.21,1.757 -2.63,2.66 -0.41,0.91 -0.5,1.871 -0.25,2.879 l 33.79,135.218 c 0.26,1.012 0.73,1.84 1.42,2.473 0.7,0.617 1.77,1.027 3.21,1.211 1.44,0.18 3.22,0.129 5.36,-0.141 2.13,-0.261 4.77,-0.793 7.9,-1.57 3.24,-0.801 5.88,-1.601 7.94,-2.383 2.06,-0.777 3.61,-1.566 4.65,-2.367 1.03,-0.801 1.71,-1.633 2.02,-2.519 0.32,-0.883 0.35,-1.832 0.1,-2.852 l -4.21,-16.82 c 4.8,4.172 9.18,7.511 13.13,10.011 3.95,2.5 7.58,4.348 10.89,5.559 3.32,1.23 6.48,1.852 9.5,1.91 3.01,0.051 5.94,-0.281 8.77,-0.988 1.31,-0.332 2.71,-0.762 4.19,-1.293 1.48,-0.52 2.98,-1.168 4.51,-1.93 1.53,-0.758 2.84,-1.508 3.94,-2.277 1.1,-0.75 1.86,-1.453 2.29,-2.102 0.43,-0.64 0.7,-1.289 0.8,-1.968 0.1,-0.661 0.12,-1.563 0.06,-2.661 -0.07,-1.121 -0.32,-2.75 -0.74,-4.902 -0.43,-2.141 -1.1,-5.039 -2.01,-8.68" /><path
         id="path22"
         style="fill:#6198f5;fill-opacity:1;fill-rule:nonzero;stroke:none"
         d="m 1563.98,112.191 c -0.13,-1.031 -0.53,-1.902 -1.2,-2.609 -0.67,-0.703 -1.78,-1.191 -3.34,-1.461 -1.55,-0.269 -3.64,-0.371 -6.26,-0.301 -2.61,0.071 -5.99,0.371 -10.12,0.899 -4.24,0.531 -7.66,1.07 -10.27,1.621 -2.6,0.539 -4.73,1.148 -6.38,1.832 -1.64,0.687 -2.88,1.5 -3.7,2.437 -0.83,0.95 -1.52,2.141 -2.07,3.582 l -36.75,78.707 -9.32,-73.16 c -0.14,-1.027 -0.56,-1.886 -1.28,-2.59 -0.72,-0.699 -1.86,-1.199 -3.42,-1.539 -1.57,-0.32 -3.61,-0.461 -6.12,-0.398 -2.51,0.059 -5.68,0.34 -9.5,0.82 -3.83,0.489 -6.96,1.02 -9.41,1.598 -2.44,0.57 -4.39,1.211 -5.82,1.922 -1.43,0.699 -2.4,1.48 -2.93,2.34 -0.52,0.851 -0.71,1.8 -0.58,2.839 l 25.98,203.809 c 0.13,1.031 0.56,1.93 1.28,2.672 0.73,0.75 1.88,1.309 3.45,1.687 1.57,0.383 3.61,0.571 6.13,0.563 2.52,0 5.7,-0.262 9.52,-0.75 3.82,-0.473 6.95,-1.039 9.39,-1.672 2.45,-0.617 4.37,-1.309 5.81,-2.07 1.42,-0.758 2.39,-1.598 2.91,-2.5 0.51,-0.899 0.7,-1.867 0.57,-2.91 l -15.47,-121.348 47.93,49.801 c 0.98,1.129 2.05,2.097 3.21,2.898 1.15,0.789 2.61,1.352 4.38,1.641 1.77,0.301 3.94,0.418 6.5,0.347 2.57,-0.058 5.81,-0.339 9.74,-0.839 3.82,-0.489 7.04,-1.028 9.64,-1.618 2.6,-0.589 4.67,-1.261 6.21,-1.972 1.53,-0.719 2.56,-1.508 3.08,-2.36 0.52,-0.859 0.71,-1.859 0.56,-2.988 -0.19,-1.551 -0.79,-3.16 -1.79,-4.82 -1,-1.66 -2.4,-3.371 -4.2,-5.129 l -46.3,-40.731 37.58,-78.351 c 0.98,-2.219 1.65,-4.121 2.03,-5.692 0.38,-1.566 0.49,-2.968 0.33,-4.207" /><path
         id="path24"
         style="fill:#6198f5;fill-opacity:1;fill-rule:nonzero;stroke:none"
         d="m 1812.46,129.449 c 0.21,-2.91 0.23,-5.39 0.06,-7.437 -0.18,-2.051 -0.5,-3.692 -0.99,-4.93 -0.49,-1.242 -1.07,-2.133 -1.76,-2.711 -0.69,-0.57 -1.51,-0.891 -2.44,-0.961 l -111.29,-7.898 c -0.83,-0.071 -1.63,0.136 -2.39,0.609 -0.76,0.469 -1.47,1.277 -2.13,2.43 -0.65,1.148 -1.21,2.73 -1.67,4.75 -0.45,2 -0.78,4.449 -0.99,7.359 -0.21,3.02 -0.27,5.551 -0.15,7.59 0.12,2.039 0.42,3.711 0.9,5 0.49,1.289 1.07,2.242 1.76,2.859 0.68,0.621 1.49,0.973 2.43,1.032 l 37.56,2.679 -9.33,131.231 -31.14,-20.231 c -2.31,-1.308 -4.21,-2.148 -5.69,-2.511 -1.49,-0.379 -2.71,-0.149 -3.66,0.671 -0.94,0.821 -1.65,2.309 -2.12,4.469 -0.46,2.16 -0.84,5.223 -1.12,9.16 -0.17,2.5 -0.27,4.551 -0.28,6.172 -0.01,1.617 0.15,3.008 0.49,4.18 0.33,1.18 0.84,2.148 1.51,2.93 0.67,0.781 1.61,1.629 2.8,2.55 l 41.33,31.129 c 0.49,0.45 1.11,0.84 1.88,1.16 0.76,0.309 1.75,0.59 2.99,0.84 1.24,0.239 2.86,0.461 4.89,0.66 2.03,0.2 4.64,0.399 7.87,0.641 3.94,0.277 7.15,0.43 9.6,0.449 2.45,0.012 4.31,-0.121 5.58,-0.398 1.28,-0.274 2.14,-0.703 2.6,-1.293 0.46,-0.598 0.72,-1.359 0.79,-2.297 l 11.85,-166.613 32.88,2.332 c 0.94,0.07 1.81,-0.153 2.63,-0.672 0.83,-0.52 1.57,-1.379 2.22,-2.578 0.67,-1.211 1.19,-2.813 1.6,-4.821 0.4,-2.011 0.72,-4.519 0.93,-7.531" /><path
         id="path26"
         style="fill:#6198f5;fill-opacity:1;fill-rule:nonzero;stroke:none"
         d="m 1935.48,238.809 c -2.03,9.371 -4.07,17.589 -6.13,24.652 -2.06,7.07 -4.2,13.141 -6.42,18.199 -2.22,5.059 -4.51,9.25 -6.88,12.582 -2.37,3.317 -4.91,5.828 -7.62,7.539 -2.72,1.707 -5.6,2.707 -8.64,3.008 -3.05,0.301 -6.31,0.082 -9.77,-0.668 -6.01,-1.301 -10.66,-3.82 -13.96,-7.57 -3.29,-3.75 -5.44,-8.781 -6.48,-15.082 -1.04,-6.297 -1.07,-13.879 -0.13,-22.731 0.96,-8.84 2.68,-19.027 5.17,-30.527 3.04,-14.051 6.11,-25.563 9.23,-34.531 3.11,-8.981 6.45,-15.93 10.03,-20.852 3.56,-4.93 7.47,-8.09 11.71,-9.457 4.24,-1.371 9.01,-1.492 14.3,-0.351 3.98,0.859 7.35,2.261 10.13,4.191 2.77,1.937 5.04,4.43 6.78,7.461 1.74,3.039 2.96,6.66 3.64,10.859 0.69,4.199 0.97,8.949 0.84,14.25 -0.14,5.301 -0.72,11.199 -1.75,17.688 -1.03,6.492 -2.38,13.613 -4.05,21.34 z m 40.04,10.75 c 3.41,-15.797 5.21,-30.317 5.43,-43.598 0.2,-13.281 -1.6,-25.02 -5.41,-35.211 -3.82,-10.211 -9.82,-18.699 -18,-25.48 -8.17,-6.782 -18.94,-11.61 -32.28,-14.489 -13.53,-2.929 -25.23,-3.043 -35.09,-0.32 -9.86,2.719 -18.33,7.859 -25.4,15.437 -7.08,7.59 -13.02,17.442 -17.83,29.563 -4.8,12.121 -8.92,26.129 -12.36,42.019 -3.39,15.668 -5.17,30.18 -5.34,43.52 -0.17,13.34 1.66,25.109 5.48,35.309 3.81,10.211 9.8,18.691 17.99,25.472 8.17,6.778 18.88,11.598 32.11,14.457 13.55,2.934 25.28,3.043 35.18,0.34 9.91,-2.707 18.41,-7.84 25.48,-15.43 7.08,-7.578 13,-17.437 17.75,-29.57 4.76,-12.137 8.85,-26.148 12.29,-42.019" /><path
         id="path28"
         style="fill:#6198f5;fill-opacity:1;fill-rule:nonzero;stroke:none"
         d="m 2078.05,200.129 c 1.39,-4.149 2.22,-7.738 2.48,-10.789 0.26,-3.051 -0.13,-5.731 -1.15,-8.059 -1.04,-2.32 -2.76,-4.301 -5.18,-5.941 -2.41,-1.641 -5.65,-3.149 -9.69,-4.508 -4.05,-1.363 -7.53,-2.121 -10.44,-2.281 -2.92,-0.172 -5.49,0.371 -7.71,1.597 -2.23,1.231 -4.11,3.153 -5.66,5.762 -1.54,2.61 -3,6 -4.41,10.141 -1.4,4.148 -2.29,7.769 -2.68,10.89 -0.39,3.098 -0.07,5.829 0.96,8.149 1.04,2.332 2.75,4.308 5.17,5.949 2.42,1.641 5.64,3.133 9.69,4.5 4.05,1.371 7.53,2.133 10.44,2.289 2.92,0.152 5.49,-0.367 7.72,-1.598 2.22,-1.242 4.18,-3.191 5.85,-5.859 1.67,-2.691 3.21,-6.101 4.61,-10.242 z m -32.6,96.68 c 1.4,-4.149 2.22,-7.707 2.45,-10.707 0.24,-3 -0.15,-5.661 -1.18,-7.993 -1.03,-2.32 -2.76,-4.308 -5.17,-5.949 -2.41,-1.629 -5.64,-3.129 -9.68,-4.5 -4.06,-1.371 -7.53,-2.129 -10.45,-2.281 -2.91,-0.16 -5.49,0.383 -7.72,1.601 -2.23,1.231 -4.1,3.122 -5.62,5.692 -1.53,2.558 -2.99,5.918 -4.39,10.058 -1.42,4.25 -2.33,7.899 -2.7,10.969 -0.37,3.051 -0.04,5.75 0.98,8.071 1.03,2.332 2.75,4.339 5.15,6.031 2.39,1.687 5.61,3.211 9.67,4.578 4.04,1.359 7.53,2.101 10.47,2.203 2.93,0.109 5.5,-0.441 7.73,-1.684 2.23,-1.218 4.17,-3.148 5.83,-5.777 1.65,-2.633 3.19,-6.07 4.63,-10.312" /><path
         id="path30"
         style="fill:#6198f5;fill-opacity:1;fill-rule:nonzero;stroke:none"
         d="m 2129.95,380.551 -0.28,-0.129 -8.64,-106.801 48.49,22.809 z m 104.17,-72.039 c 2.27,-4.801 3.49,-8.692 3.67,-11.66 0.19,-2.961 -0.57,-4.84 -2.26,-5.633 l -16.26,-7.66 15.55,-33.09 c 0.45,-0.93 0.55,-1.887 0.32,-2.867 -0.23,-0.961 -0.94,-2.02 -2.13,-3.161 -1.19,-1.132 -2.87,-2.359 -5.02,-3.652 -2.15,-1.301 -5.02,-2.797 -8.61,-4.48 -3.38,-1.598 -6.29,-2.821 -8.72,-3.668 -2.42,-0.852 -4.42,-1.371 -6,-1.532 -1.59,-0.179 -2.81,-0.027 -3.66,0.442 -0.85,0.461 -1.5,1.16 -1.95,2.097 l -15.55,33.082 -69.99,-32.921 c -1.32,-0.61 -2.58,-1 -3.77,-1.161 -1.2,-0.16 -2.43,0.192 -3.69,1.032 -1.26,0.851 -2.57,2.3 -3.94,4.359 -1.38,2.051 -2.92,4.922 -4.66,8.609 -1.41,3.012 -2.58,5.661 -3.48,7.942 -0.89,2.281 -1.6,4.39 -2.11,6.34 -0.51,1.949 -0.84,3.859 -0.98,5.75 -0.15,1.902 -0.17,3.961 -0.06,6.199 l 9.68,126.98 c 0.08,1.063 0.54,2.172 1.38,3.321 0.83,1.14 2.17,2.402 4,3.781 1.83,1.371 4.25,2.891 7.27,4.551 3.02,1.648 6.75,3.508 11.18,5.59 4.81,2.269 8.96,4.078 12.47,5.437 3.5,1.359 6.39,2.262 8.66,2.691 2.27,0.442 4.05,0.5 5.35,0.18 1.3,-0.308 2.19,-0.969 2.68,-2.019 l 51.8,-110.129 16.26,7.636 c 1.52,0.723 3.35,0.172 5.52,-1.628 2.18,-1.801 4.52,-5.391 7.05,-10.758" /><path
         id="path32"
         style="fill:#6198f5;fill-opacity:1;fill-rule:nonzero;stroke:none"
         d="m 2368.55,405.609 c 6.11,-9.07 9.98,-18.238 11.63,-27.488 1.63,-9.262 1.23,-18.25 -1.24,-27 -2.47,-8.75 -6.87,-17.141 -13.21,-25.172 -6.34,-8.027 -14.43,-15.359 -24.28,-21.98 -5.19,-3.5 -10.34,-6.481 -15.43,-8.981 -5.11,-2.488 -9.86,-4.476 -14.24,-5.988 -4.39,-1.512 -8.1,-2.559 -11.15,-3.168 -3.04,-0.602 -5.15,-0.832 -6.32,-0.672 -1.18,0.16 -2.19,0.512 -3.06,1.059 -0.87,0.531 -1.78,1.269 -2.71,2.211 -0.95,0.941 -2.02,2.199 -3.21,3.781 -1.19,1.578 -2.54,3.5 -4.05,5.738 -1.63,2.43 -2.92,4.539 -3.89,6.34 -0.95,1.801 -1.59,3.352 -1.9,4.652 -0.3,1.297 -0.34,2.34 -0.12,3.129 0.23,0.782 0.68,1.391 1.38,1.86 0.87,0.59 2.52,0.968 4.96,1.172 2.44,0.199 5.52,0.668 9.22,1.398 3.71,0.738 7.98,2 12.79,3.809 4.82,1.781 10.13,4.64 15.92,8.531 5.01,3.371 9.22,6.961 12.63,10.75 3.4,3.801 5.77,7.808 7.08,12.019 1.31,4.211 1.58,8.563 0.82,13.063 -0.78,4.5 -2.79,9.18 -6.05,14.027 -2.78,4.141 -5.92,7.403 -9.39,9.77 -3.48,2.363 -7.36,3.742 -11.63,4.133 -4.28,0.39 -9.01,-0.34 -14.16,-2.18 -5.17,-1.84 -10.91,-4.883 -17.22,-9.133 -5.01,-3.367 -9.4,-6.699 -13.16,-9.969 -3.76,-3.281 -7.45,-6.14 -11.08,-8.582 -2.5,-1.687 -4.72,-2.269 -6.64,-1.738 -1.92,0.52 -4.02,2.469 -6.29,5.84 l -49,72.871 c -2.33,3.461 -3.33,6.391 -3.01,8.809 0.32,2.41 1.95,4.609 4.89,6.582 l 79.48,53.457 c 0.79,0.523 1.69,0.75 2.73,0.703 1.04,-0.063 2.18,-0.492 3.41,-1.293 1.23,-0.797 2.58,-2.059 4.04,-3.778 1.47,-1.703 3.08,-3.859 4.81,-6.453 3.5,-5.187 5.57,-9.25 6.23,-12.199 0.67,-2.937 0.13,-5 -1.6,-6.16 l -59.64,-40.109 24.15,-35.918 c 2.8,2.386 5.66,4.617 8.58,6.707 2.93,2.089 6.02,4.25 9.32,6.461 9.07,6.101 17.84,10.46 26.31,13.082 8.47,2.617 16.49,3.488 24.05,2.609 7.56,-0.879 14.64,-3.52 21.24,-7.93 6.6,-4.402 12.6,-10.633 18.01,-18.672" /><path
         id="path34"
         style="fill:#6198f5;fill-opacity:1;fill-rule:nonzero;stroke:none"
         d="m 1070.15,2761.27 c 1.55,-2.92 2.74,-5.48 3.58,-7.68 0.85,-2.2 1.35,-4.05 1.51,-5.58 0.17,-1.53 0.03,-2.79 -0.4,-3.79 -0.44,-1.01 -1.11,-1.75 -2.02,-2.23 l -48.91,-25.94 83.52,-157.48 c 0.53,-1 0.69,-2.08 0.46,-3.23 -0.23,-1.16 -0.97,-2.39 -2.21,-3.68 -1.24,-1.31 -3.06,-2.8 -5.47,-4.45 -2.41,-1.67 -5.52,-3.52 -9.34,-5.55 -3.83,-2.03 -7.11,-3.57 -9.83,-4.62 -2.73,-1.07 -4.99,-1.74 -6.75,-2.04 -1.78,-0.3 -3.22,-0.22 -4.3,0.24 -1.07,0.46 -1.88,1.19 -2.42,2.2 l -83.515,157.47 -48.918,-25.95 c -1.004,-0.53 -2.024,-0.69 -3.047,-0.45 -1.027,0.22 -2.117,0.83 -3.289,1.83 -1.172,0.99 -2.434,2.45 -3.781,4.38 -1.348,1.93 -2.793,4.36 -4.344,7.27 -1.594,3.02 -2.832,5.65 -3.703,7.9 -0.868,2.25 -1.387,4.13 -1.551,5.66 -0.168,1.53 -0.039,2.75 0.371,3.68 0.406,0.93 1.121,1.66 2.129,2.2 l 137.698,73.02 c 0.89,0.48 1.88,0.64 2.92,0.49 1.05,-0.15 2.15,-0.73 3.33,-1.72 1.17,-0.99 2.45,-2.47 3.81,-4.45 1.38,-1.98 2.86,-4.48 4.47,-7.5" /><path
         id="path36"
         style="fill:#6198f5;fill-opacity:1;fill-rule:nonzero;stroke:none"
         d="m 1281.03,2738.65 c -3.65,11.03 -7.83,20.78 -12.54,29.24 -4.72,8.47 -10.23,15.22 -16.52,20.29 -6.3,5.05 -13.48,8.2 -21.56,9.43 -8.1,1.23 -17.32,0.12 -27.71,-3.31 -10.49,-3.46 -18.61,-8.33 -24.33,-14.61 -5.73,-6.27 -9.66,-13.42 -11.81,-21.44 -2.15,-8.04 -2.65,-16.75 -1.53,-26.16 1.13,-9.41 3.32,-19.03 6.57,-28.88 3.79,-11.47 8.06,-21.48 12.81,-30.05 4.75,-8.57 10.26,-15.42 16.52,-20.55 6.25,-5.13 13.41,-8.27 21.45,-9.38 8.05,-1.12 17.32,0.05 27.82,3.52 10.48,3.46 18.61,8.31 24.35,14.52 5.74,6.23 9.68,13.4 11.79,21.54 2.11,8.14 2.59,16.96 1.41,26.48 -1.16,9.51 -3.4,19.3 -6.72,29.36 z m 44.03,17.07 c 5.75,-17.42 8.74,-33.71 8.95,-48.88 0.22,-15.17 -2.37,-28.95 -7.75,-41.35 -5.39,-12.4 -13.55,-23.19 -24.48,-32.38 -10.95,-9.2 -24.7,-16.53 -41.25,-22 -16.33,-5.4 -31.29,-7.97 -44.88,-7.72 -13.57,0.25 -25.86,3.41 -36.88,9.5 -11.01,6.08 -20.77,15.21 -29.3,27.4 -8.52,12.17 -15.85,27.52 -21.95,46.02 -5.62,16.98 -8.51,32.97 -8.66,47.98 -0.16,15.01 2.46,28.68 7.86,41.02 5.4,12.35 13.56,23.15 24.48,32.4 10.93,9.24 24.72,16.62 41.38,22.13 15.9,5.25 30.64,7.78 44.2,7.58 13.56,-0.2 25.88,-3.32 36.94,-9.39 11.07,-6.06 20.88,-15.09 29.46,-27.07 8.58,-11.99 15.87,-27.07 21.88,-45.24" /><path
         id="path38"
         style="fill:#6198f5;fill-opacity:1;fill-rule:nonzero;stroke:none"
         d="m 1588.55,2739.92 c 0.93,-11.58 -0.42,-21.92 -4.03,-31.01 -3.62,-9.09 -8.88,-16.86 -15.79,-23.3 -6.9,-6.45 -15.18,-11.54 -24.81,-15.28 -9.67,-3.74 -20.1,-6.07 -31.34,-6.97 -7.62,-0.61 -14.74,-0.56 -21.37,0.17 -6.63,0.73 -12.51,1.76 -17.65,3.13 -5.14,1.36 -9.46,2.86 -12.96,4.52 -3.51,1.67 -6.06,3.18 -7.65,4.54 -1.6,1.35 -2.82,3.39 -3.67,6.13 -0.84,2.74 -1.48,6.71 -1.9,11.94 -0.28,3.51 -0.41,6.47 -0.37,8.88 0.04,2.4 0.25,4.37 0.65,5.88 0.39,1.51 0.98,2.63 1.78,3.31 0.8,0.7 1.77,1.09 2.9,1.19 1.6,0.13 3.92,-0.64 6.97,-2.28 3.04,-1.63 6.92,-3.42 11.65,-5.32 4.72,-1.91 10.31,-3.55 16.77,-4.91 6.45,-1.37 13.82,-1.72 22.11,-1.06 5.45,0.44 10.29,1.49 14.51,3.14 4.19,1.65 7.72,3.8 10.52,6.42 2.82,2.62 4.88,5.76 6.19,9.41 1.32,3.65 1.8,7.64 1.44,11.94 -0.39,5 -2.1,9.18 -5.12,12.54 -3,3.36 -6.81,6.25 -11.4,8.69 -4.59,2.42 -9.78,4.64 -15.54,6.63 -5.76,2 -11.7,4.12 -17.82,6.38 -6.14,2.25 -12.11,4.88 -17.95,7.9 -5.85,3.01 -11.15,6.76 -15.91,11.24 -4.77,4.47 -8.77,9.89 -12.02,16.26 -3.26,6.37 -5.26,14.15 -6,23.35 -0.85,10.57 0.37,20 3.64,28.32 3.29,8.32 8.03,15.39 14.24,21.21 6.23,5.82 13.74,10.39 22.57,13.73 8.82,3.33 18.27,5.41 28.39,6.22 5.21,0.42 10.47,0.44 15.76,0.07 5.29,-0.38 10.26,-1.07 14.92,-2.07 4.64,-1 8.8,-2.2 12.46,-3.63 3.66,-1.42 6.1,-2.65 7.32,-3.69 1.24,-1.05 2.08,-1.95 2.55,-2.71 0.44,-0.77 0.88,-1.79 1.26,-3.08 0.39,-1.28 0.72,-2.91 1,-4.89 0.27,-1.97 0.52,-4.44 0.76,-7.39 0.27,-3.3 0.4,-6.09 0.41,-8.37 0.02,-2.29 -0.12,-4.19 -0.4,-5.69 -0.29,-1.51 -0.76,-2.64 -1.43,-3.37 -0.68,-0.74 -1.66,-1.16 -2.91,-1.27 -1.25,-0.1 -3.29,0.54 -6.15,1.92 -2.86,1.36 -6.35,2.83 -10.47,4.38 -4.12,1.56 -8.86,2.89 -14.21,4 -5.35,1.11 -11.15,1.42 -17.38,0.92 -4.89,-0.39 -9.1,-1.33 -12.64,-2.81 -3.54,-1.49 -6.45,-3.38 -8.72,-5.67 -2.28,-2.3 -3.89,-4.97 -4.83,-8.02 -0.96,-3.06 -1.31,-6.23 -1.05,-9.51 0.4,-4.89 2.07,-9.01 5.03,-12.37 2.95,-3.38 6.79,-6.26 11.49,-8.69 4.71,-2.42 10,-4.62 15.87,-6.61 5.88,-1.98 11.89,-4.1 18.01,-6.35 6.11,-2.25 12.16,-4.89 18.13,-7.89 5.94,-3.01 11.33,-6.75 16.16,-11.22 4.8,-4.47 8.85,-9.86 12.09,-16.17 3.25,-6.32 5.22,-13.9 5.94,-22.76" /><path
         id="path40"
         style="fill:#6198f5;fill-opacity:1;fill-rule:nonzero;stroke:none"
         d="m 1744.38,2683.77 c -0.19,-3.3 -0.49,-6.06 -0.88,-8.26 -0.41,-2.2 -0.94,-3.97 -1.59,-5.3 -0.63,-1.34 -1.4,-2.3 -2.28,-2.87 -0.9,-0.58 -1.86,-0.84 -2.87,-0.79 l -110.93,6.05 c -3.74,0.21 -6.85,1.49 -9.29,3.85 -2.43,2.36 -3.5,6.04 -3.24,11.05 l 10.5,192.48 c 0.26,5 1.75,8.55 4.43,10.63 2.69,2.08 5.9,3.02 9.65,2.81 l 110.25,-6.01 c 1.02,-0.06 1.91,-0.39 2.67,-1.01 0.76,-0.61 1.4,-1.64 1.89,-3.1 0.49,-1.46 0.82,-3.29 0.97,-5.53 0.17,-2.23 0.17,-5.06 -0.02,-8.47 -0.17,-3.18 -0.47,-5.88 -0.88,-8.08 -0.41,-2.21 -0.92,-3.97 -1.57,-5.3 -0.63,-1.34 -1.38,-2.29 -2.21,-2.88 -0.82,-0.58 -1.74,-0.84 -2.78,-0.79 l -78.84,4.3 -2.94,-53.92 66.72,-3.65 c 1.03,-0.05 1.95,-0.41 2.78,-1.08 0.82,-0.68 1.47,-1.69 1.97,-3.02 0.49,-1.33 0.82,-3.13 0.98,-5.36 0.16,-2.23 0.16,-4.95 -0.01,-8.13 -0.18,-3.3 -0.47,-6.02 -0.86,-8.17 -0.41,-2.14 -0.93,-3.86 -1.57,-5.13 -0.64,-1.28 -1.4,-2.18 -2.29,-2.7 -0.89,-0.53 -1.85,-0.76 -2.86,-0.7 l -66.72,3.64 -3.41,-62.28 79.52,-4.34 c 1.04,-0.07 1.94,-0.42 2.77,-1.1 0.82,-0.67 1.47,-1.7 1.97,-3.1 0.5,-1.4 0.82,-3.21 0.98,-5.44 0.17,-2.23 0.16,-5.01 -0.01,-8.3" /><path
         id="path42"
         style="fill:#6198f5;fill-opacity:1;fill-rule:nonzero;stroke:none"
         d="m 1901.83,2794.62 c 1.48,7.14 1.12,13.49 -1.1,19.08 -2.21,5.58 -6.79,10.14 -13.74,13.68 -2.12,1.02 -4.57,1.99 -7.34,2.92 -2.77,0.92 -6.67,1.91 -11.69,2.95 l -19.74,4.1 -12.75,-61.41 22.41,-4.65 c 6.24,-1.31 11.87,-1.69 16.87,-1.15 5,0.52 9.33,1.83 13.03,3.92 3.68,2.08 6.71,4.86 9.08,8.33 2.33,3.47 4,7.54 4.97,12.23 z m 26.21,-158.69 c -0.27,-1.23 -0.7,-2.22 -1.32,-2.96 -0.62,-0.75 -1.82,-1.23 -3.6,-1.44 -1.79,-0.2 -4.33,-0.08 -7.62,0.36 -3.27,0.45 -7.72,1.26 -13.27,2.42 -4.7,0.96 -8.41,1.86 -11.16,2.66 -2.74,0.8 -4.86,1.68 -6.33,2.63 -1.5,0.95 -2.48,1.96 -2.96,3.06 -0.47,1.07 -0.79,2.34 -0.96,3.77 l -9.36,52.39 c -1.21,5.95 -2.5,11.28 -3.84,15.98 -1.35,4.7 -3.1,8.76 -5.24,12.18 -2.14,3.41 -4.85,6.2 -8.11,8.4 -3.28,2.19 -7.26,3.77 -11.94,4.75 l -13.71,2.85 -17.14,-82.49 c -0.23,-1.13 -0.8,-2.05 -1.71,-2.79 -0.92,-0.74 -2.27,-1.22 -4.06,-1.43 -1.78,-0.21 -4.11,-0.19 -6.97,0.05 -2.85,0.25 -6.45,0.82 -10.81,1.72 -4.24,0.89 -7.74,1.79 -10.52,2.71 -2.77,0.93 -4.95,1.84 -6.5,2.75 -1.56,0.9 -2.57,1.87 -3.06,2.9 -0.49,1.03 -0.6,2.11 -0.37,3.22 l 40.82,196.61 c 1.03,4.91 3.02,8.2 5.98,9.85 2.97,1.65 6.29,2.1 9.97,1.33 l 56.05,-11.64 c 5.69,-1.18 10.35,-2.27 13.99,-3.25 3.63,-1 6.92,-1.97 9.86,-2.93 8.45,-3.03 15.85,-6.78 22.2,-11.23 6.33,-4.47 11.43,-9.63 15.28,-15.49 3.84,-5.86 6.36,-12.38 7.55,-19.55 1.18,-7.17 0.89,-15.05 -0.9,-23.64 -1.51,-7.25 -3.8,-13.66 -6.88,-19.25 -3.08,-5.59 -6.89,-10.35 -11.43,-14.3 -4.55,-3.94 -9.8,-7.1 -15.76,-9.47 -5.96,-2.36 -12.51,-3.91 -19.64,-4.64 2.91,-2.24 5.56,-4.76 7.93,-7.59 2.39,-2.82 4.5,-6.07 6.36,-9.78 1.85,-3.69 3.45,-7.82 4.84,-12.35 1.39,-4.54 2.61,-9.59 3.66,-15.16 l 9.38,-46.46 c 0.79,-4.59 1.26,-7.92 1.41,-9.98 0.16,-2.07 0.11,-3.66 -0.11,-4.77" /><path
         id="path44"
         style="fill:#6198f5;fill-opacity:1;fill-rule:nonzero;stroke:none"
         d="m 2043.28,2593.87 c -1.24,-1.6 -2.49,-2.79 -3.78,-3.58 -1.27,-0.79 -2.99,-1.11 -5.12,-0.95 -2.14,0.15 -4.89,0.78 -8.25,1.89 -3.35,1.11 -7.69,2.7 -13,4.75 -4.25,1.64 -7.89,3.06 -10.9,4.29 -3,1.22 -5.53,2.35 -7.57,3.38 -2.05,1.04 -3.65,2.02 -4.82,2.96 -1.16,0.93 -2.07,1.9 -2.73,2.88 -0.65,0.99 -1.06,2.02 -1.18,3.11 -0.13,1.09 -0.14,2.42 -0.03,3.95 l 9.17,206.57 c 0.19,4.32 0.59,7.65 1.19,9.99 0.59,2.32 1.77,3.79 3.53,4.4 1.76,0.6 4.28,0.42 7.57,-0.54 3.29,-0.97 7.81,-2.56 13.55,-4.77 4.88,-1.89 8.68,-3.47 11.36,-4.75 2.68,-1.28 4.66,-2.47 5.95,-3.58 1.28,-1.11 2.01,-2.3 2.18,-3.58 0.18,-1.3 0.23,-2.84 0.14,-4.64 l -11.16,-178.5 0.16,-0.06 110.35,139.32 c 1.12,1.64 2.21,2.89 3.29,3.77 1.06,0.87 2.48,1.33 4.27,1.37 1.79,0.05 4.17,-0.38 7.11,-1.28 2.95,-0.89 6.93,-2.3 11.92,-4.23 4.89,-1.89 8.64,-3.51 11.23,-4.88 2.58,-1.36 4.14,-2.85 4.67,-4.46 0.54,-1.61 0.2,-3.46 -1.04,-5.56 -1.22,-2.08 -3.2,-4.75 -5.91,-7.96 l -132.15,-159.31" /><path
         id="path46"
         style="fill:#6198f5;fill-opacity:1;fill-rule:nonzero;stroke:none"
         d="m 2236.01,2503.83 c -1.66,-2.86 -3.18,-5.17 -4.53,-6.96 -1.35,-1.78 -2.61,-3.12 -3.79,-4.02 -1.19,-0.9 -2.3,-1.41 -3.35,-1.52 -1.06,-0.11 -2.03,0.09 -2.91,0.6 l -96.19,55.56 c -3.26,1.88 -5.45,4.42 -6.55,7.63 -1.1,3.21 -0.41,6.98 2.1,11.33 l 96.43,166.91 c 2.5,4.35 5.42,6.84 8.76,7.48 3.32,0.64 6.62,0.02 9.88,-1.86 l 95.59,-55.22 c 0.88,-0.52 1.54,-1.22 1.94,-2.1 0.4,-0.9 0.5,-2.11 0.28,-3.62 -0.22,-1.52 -0.76,-3.31 -1.63,-5.38 -0.87,-2.07 -2.15,-4.58 -3.86,-7.54 -1.6,-2.76 -3.07,-5.04 -4.43,-6.82 -1.36,-1.78 -2.62,-3.12 -3.8,-4.02 -1.18,-0.89 -2.27,-1.41 -3.27,-1.56 -1.02,-0.15 -1.95,0.04 -2.85,0.56 l -68.35,39.49 -27.02,-46.77 57.87,-33.42 c 0.88,-0.51 1.54,-1.25 1.96,-2.22 0.42,-0.98 0.56,-2.17 0.39,-3.59 -0.16,-1.42 -0.66,-3.16 -1.53,-5.22 -0.86,-2.07 -2.1,-4.48 -3.69,-7.25 -1.66,-2.87 -3.15,-5.16 -4.47,-6.89 -1.33,-1.73 -2.58,-3.03 -3.73,-3.86 -1.15,-0.86 -2.23,-1.32 -3.26,-1.38 -1.01,-0.07 -1.97,0.15 -2.86,0.67 l -57.87,33.43 -31.19,-54.02 68.95,-39.84 c 0.89,-0.52 1.55,-1.26 1.98,-2.23 0.43,-0.96 0.53,-2.18 0.35,-3.65 -0.2,-1.47 -0.72,-3.24 -1.58,-5.3 -0.87,-2.07 -2.12,-4.53 -3.77,-7.4" /><path
         id="path48"
         style="fill:none;stroke:#ffffff;stroke-width:10;stroke-linecap:butt;stroke-linejoin:miter;stroke-miterlimit:10;stroke-dasharray:none;stroke-opacity:1"
         d="m 1760.63,2123.64 c -23.15,39.04 -29.17,39.61 -60.09,14.04 -7.21,-5.97 -19.66,-9.53 -28.94,-8.33 -29.95,3.87 -44.73,-12.72 -60.57,-34.59 -21.08,-29.11 -21.08,-69.96 -57.74,-91.08 -26,-14.98 -62.99,-16.12 -69.34,6.18 -11.83,41.5 -23.32,48.54 -66.28,43.24 -35.73,-4.41 -71.57,-9.24 -107.47,-10.3 -12.15,-0.35 -29.88,6.94 -35.95,16.52 -18.35,28.93 -40.4,34.86 -70.69,22.51 -27.19,-11.08 -43.33,1.8 -54.31,26.29 -6.49,14.47 -15.06,28.01 -17.97,33.33 -23.87,-4.42 -39.34,-5.03 -52.97,-10.35 -18.19,-7.1 -40.79,-13.89 -50.56,-28.25 -8.59,-12.62 -2.14,-35.48 -2.41,-61.63 38.91,29.37 67.99,31.62 97.16,4.85 -88.16,-37.32 -72.17,-30.29 -121.39,-88.31 25.71,-17.7 53.53,-39.76 39.45,-73.01 -17.57,-41.47 -49.568,-62.52 -90.837,-23.93 -3.926,-29.27 -9.231,-53.98 -10.106,-78.85 -1.222,-35.17 -34.301,-41.42 -53.816,-56.86 -8.188,-6.49 -36.625,12.61 -59.981,21.68 -6.472,-3.26 -19.746,-9.95 -34.218,-17.24 1.488,-37.9 3.007,-76.48 4.535,-115.44 9.953,2.71 16.636,4.52 16.027,4.36 4.969,-43.91 9.723,-85.91 14.215,-125.57 8.012,9.22 18.871,21.72 29.652,34.13 23.207,-22.13 -54.808,-44.49 -1.242,-62.35 -8.805,-6.68 -24.383,-14.69 -23.418,-18.37 8.703,-33.11 20.215,-65.49 31.297,-97.94 0.57,-1.68 4.691,-2.14 8.895,-3.9 -6.829,-2.86 -11.125,-4.66 -15.524,-6.51 14.859,-40.3 33.199,-79.51 43.758,-120.71 28.254,-110.3 53.164,-221.461 79.457,-332.262 2.508,-10.59 2.254,-23.906 8.699,-31.109 23.617,-26.359 38.367,-69.367 88.597,-52.418 4.75,1.598 12.26,-6.922 19.03,-8.801 7.86,-2.191 19.28,-6.129 24,-2.539 24.87,18.93 48.12,39.981 72.66,60.93 -10.18,9.75 -17.24,16.508 -26.21,25.097 10.96,7.301 19.18,12.782 36.43,24.274 -48.36,10.598 -51.41,46.91 -64.84,81.418 32.4,-7.32 41.33,57.74 80.1,19.34 16.1,34.22 70.63,33.64 68.91,81.18 -0.04,1.07 13.41,4.6 20.02,3.53 13.97,-2.26 27.57,-6.8 41.32,-10.42 -0.9,2.17 -1.81,4.34 -2.71,6.5 32.3,11.12 64.61,22.24 97.42,33.54 -3.98,35.17 -7.34,74.46 -11.14,108.02 60.96,-3.57 99.09,-0.71 153.46,-5 -9.03,14.99 -8.3,18.12 -0.62,25.13 12.56,12.67 21.56,22.51 31.4,31.42 5.88,5.33 13.92,14.01 19.51,12.99 35.77,-6.46 45.58,8.91 35.12,41.77 34.57,-5.58 42.02,2.05 42.2,33.05 0.05,8.29 8.29,18.79 15.72,24.31 16.46,12.23 35.19,21.34 52.19,32.88 11.77,8 22.21,17.95 34.66,28.18 1.17,8.47 -1.11,23.8 5.38,32.88 18.43,25.8 40.44,49.06 63.24,75.92 -38.58,19.98 -25.69,44.44 -20.47,71.91 8.46,44.49 34.61,25.75 62.12,17.29 -6.81,12.01 -10.49,18.52 -17.19,30.34 44.63,-1.41 44.14,24 38.32,53.61 -2.91,14.79 -4.7,30.23 -3.6,45.13 0.36,4.96 11.94,13.72 17.24,12.94 33.57,-4.92 66.82,-12.03 97.85,-17.96 12.08,-9.7 24.1,-19.34 37.91,-30.42 -0.34,-2.8 -1.17,-9.89 -2.9,-24.74 23.18,9.68 40.08,16.75 56.99,23.81 25.62,0.74 52.5,-3.78 83.65,4.95 45.2,12.67 76.06,-18.97 77.04,-66.15 0.49,-22.89 -12.21,-43.12 4.83,-70.19 34.1,-54.17 29.65,-56.96 76.14,-9.52 -31.2,42.11 -21.51,72.19 31.28,111.73 21.49,-2.03 39.88,-9.11 51.83,-3.19 9.37,4.63 10.76,25.36 13.3,32.39 -34.51,24.54 -62.47,44.42 -90.42,64.3 -4.36,-1.76 -8.73,-3.51 -13.09,-5.27 6.18,14.22 14.47,27.98 17.69,42.83 1.76,8.15 -2.86,24.4 -8.34,26.32 -38.01,13.28 -22.15,26.07 -2.71,42.82 7.63,6.57 16.19,21.17 13.75,28.67 -9.19,28.17 -25.19,54.43 -13.09,85.87 0.78,2.03 -3.26,6.11 -5.35,9.02 -12.56,17.5 -25.19,34.95 -36.7,50.88 22.8,13 36.78,20.98 50.75,28.96 -15.5,10.83 -33.3,8.59 -39.53,16.03 -33.79,40.32 -69.3,32.55 -116.09,22.95 -46.87,-9.62 -99.12,7.08 -147.23,12.06 -10.55,-5.08 -22.53,-10.75 -34.41,-16.61 -5.73,-2.82 -14.27,-4.6 -16.45,-9.23 -13.02,-27.83 -37.66,-25.31 -60.72,-23.22 -26.17,2.38 -51.99,8.44 -78.07,12.09 -6.72,0.94 -17.04,1.59 -20.31,-2.24 -31.63,-36.97 -71.62,-40.89 -117.93,-43.37 -34.5,-1.85 -31.86,13.69 -38.42,33.36 10.37,3 18.28,5.28 29.16,8.43 z" /><path
         id="path50"
         style="fill:#ffffff;fill-opacity:1;fill-rule:nonzero;stroke:none"
         d="m 1760.63,2123.64 c -10.88,-3.15 -18.79,-5.43 -29.16,-8.43 6.56,-19.67 3.92,-35.21 38.42,-33.36 46.31,2.48 86.3,6.4 117.93,43.37 3.27,3.83 13.59,3.18 20.31,2.24 26.08,-3.65 51.9,-9.71 78.07,-12.09 23.06,-2.09 47.7,-4.61 60.72,23.22 2.18,4.63 10.72,6.41 16.45,9.23 11.88,5.86 23.86,11.53 34.41,16.61 48.11,-4.98 100.36,-21.68 147.23,-12.06 46.79,9.6 82.3,17.37 116.09,-22.95 6.23,-7.44 24.03,-5.2 39.53,-16.03 -13.97,-7.98 -27.95,-15.96 -50.75,-28.96 11.51,-15.93 24.14,-33.38 36.7,-50.88 2.09,-2.91 6.13,-6.99 5.35,-9.02 -12.1,-31.44 3.9,-57.7 13.09,-85.87 2.44,-7.5 -6.12,-22.1 -13.75,-28.67 -19.44,-16.75 -35.3,-29.54 2.71,-42.82 5.48,-1.92 10.1,-18.17 8.34,-26.32 -3.22,-14.85 -11.51,-28.61 -17.69,-42.83 4.36,1.76 8.73,3.51 13.09,5.27 27.95,-19.88 55.91,-39.76 90.42,-64.3 -2.54,-7.03 -3.93,-27.76 -13.3,-32.39 -11.95,-5.92 -30.34,1.16 -51.83,3.19 -52.79,-39.54 -62.48,-69.62 -31.28,-111.73 -46.49,-47.44 -42.04,-44.65 -76.14,9.52 -17.04,27.07 -4.34,47.3 -4.83,70.19 -0.98,47.18 -31.84,78.82 -77.04,66.15 -31.15,-8.73 -58.03,-4.21 -83.65,-4.95 -16.91,-7.06 -33.81,-14.13 -56.99,-23.81 1.73,14.85 2.56,21.94 2.9,24.74 -13.81,11.08 -25.83,20.72 -37.91,30.42 -31.03,5.93 -64.28,13.04 -97.85,17.96 -5.3,0.78 -16.88,-7.98 -17.24,-12.94 -1.1,-14.9 0.69,-30.34 3.6,-45.13 5.82,-29.61 6.31,-55.02 -38.32,-53.61 6.7,-11.82 10.38,-18.33 17.19,-30.34 -27.51,8.46 -53.66,27.2 -62.12,-17.29 -5.22,-27.47 -18.11,-51.93 20.47,-71.91 -22.8,-26.86 -44.81,-50.12 -63.24,-75.92 -6.49,-9.08 -4.21,-24.41 -5.38,-32.88 -12.45,-10.23 -22.89,-20.18 -34.66,-28.18 -17,-11.54 -35.73,-20.65 -52.19,-32.88 -7.43,-5.52 -15.67,-16.02 -15.72,-24.31 -0.18,-31 -7.63,-38.63 -42.2,-33.05 10.46,-32.86 0.65,-48.23 -35.12,-41.77 -5.59,1.02 -13.63,-7.66 -19.51,-12.99 -9.84,-8.91 -7.2,-50.87 -19.75,-63.54 1.32,-11.65 -11.15,27.74 -8.45,3.91 -54.14,9.45 -101.94,-5.57 -156.66,3.98 3.8,-33.57 7.78,-68.75 11.76,-103.92 -32.81,-11.3 -65.12,-22.42 -97.42,-33.54 0.9,-2.16 1.81,-4.33 2.71,-6.5 -13.75,3.62 -27.35,8.16 -41.32,10.42 -6.61,1.07 -20.06,-2.46 -20.02,-3.53 1.72,-47.54 -52.81,-46.96 -68.91,-81.18 -38.77,38.4 -47.7,-26.66 -80.1,-19.34 13.43,-34.508 16.48,-70.82 64.84,-81.418 -17.25,-11.492 -25.47,-16.973 -36.43,-24.274 8.97,-8.589 16.03,-15.347 26.21,-25.097 -24.54,-20.949 -47.79,-42 -72.66,-60.93 -4.72,-3.59 -16.14,0.348 -24,2.539 -6.77,1.879 -14.28,10.399 -19.03,8.801 -50.23,-16.949 -64.98,26.059 -88.597,52.418 -6.445,7.203 -6.191,20.519 -8.699,31.109 -26.293,110.801 -51.203,221.962 -79.457,332.262 -10.559,41.2 -28.899,80.41 -43.758,120.71 4.399,1.85 8.695,3.65 15.524,6.51 -4.204,1.76 -8.325,2.22 -8.895,3.9 -11.082,32.45 -22.594,64.83 -31.297,97.94 -0.965,3.68 14.613,11.69 23.418,18.37 -53.566,17.86 24.449,40.22 1.242,62.35 -10.781,-12.41 -21.64,-24.91 -29.652,-34.13 -4.492,39.66 -9.246,81.66 -14.215,125.57 0.609,0.16 -6.074,-1.65 -16.027,-4.36 -1.528,38.96 -3.047,77.54 -4.535,115.44 14.472,7.29 27.746,13.98 34.218,17.24 23.356,-9.07 51.793,-28.17 59.981,-21.68 19.515,15.44 52.594,21.69 53.816,56.86 0.875,24.87 6.18,49.58 10.106,78.85 41.269,-38.59 73.267,-17.54 90.837,23.93 14.08,33.25 -13.74,55.31 -39.45,73.01 49.22,58.02 33.23,50.99 121.39,88.31 -29.17,26.77 -58.25,24.52 -97.16,-4.85 0.27,26.15 -6.18,49.01 2.41,61.63 9.77,14.36 32.37,21.15 50.56,28.25 13.63,5.32 29.1,5.93 52.97,10.35 2.91,-5.32 11.48,-18.86 17.97,-33.33 10.98,-24.49 27.12,-37.37 54.31,-26.29 30.29,12.35 52.34,6.42 70.69,-22.51 6.07,-9.58 23.8,-16.87 35.95,-16.52 35.9,1.06 71.74,5.89 107.47,10.3 42.96,5.3 54.45,-1.74 66.28,-43.24 6.35,-22.3 43.34,-21.16 69.34,-6.18 36.66,21.12 36.66,61.97 57.74,91.08 15.84,21.87 30.62,38.46 60.57,34.59 9.28,-1.2 21.73,2.36 28.94,8.33 30.92,25.57 36.94,25 60.09,-14.04" /><path
         id="path52"
         style="fill:#ffffff;fill-opacity:1;fill-rule:nonzero;stroke:none"
         d="m 1679.77,1022.26 c -36.18,0 -77.17,-10.24 -102.49,-62.08 0,0 -15.96,-25.782 -22.79,0 -12.2,46.03 -66.31,62.08 -102.48,62.08 -71.73,0 -115.74,-43.401 -115.74,-138.049 V 735.32 c 0,-13.859 7.84,-21.699 21.71,-21.699 h 18.07 c 13.87,0 22.31,7.84 22.31,21.699 v 148.891 c 0,61.5 27.73,83.801 59.68,83.801 27.73,0 79.57,-17.492 82.59,-106.09 V 735.32 c 0,-13.859 7.83,-21.699 21.7,-21.699 4.55,0.559 7.11,0 7.11,0 13.87,0 21.71,7.84 21.71,21.699 v 126.602 c 3.01,88.598 54.86,106.09 82.58,106.09 31.94,0 59.69,-22.301 59.69,-83.801 V 735.32 c 0,-13.859 8.43,-21.699 22.3,-21.699 h 18.08 c 13.87,0 21.71,7.84 21.71,21.699 v 148.891 c 0,94.648 -44.02,138.049 -115.74,138.049" /><path
         id="path54"
         style="fill:#ffffff;fill-opacity:1;fill-rule:nonzero;stroke:none"
         d="m 2140.72,765.461 c -7.23,13.871 0,23.508 14.47,27.129 l 12.66,3.621 c 12.06,3 19.29,-2.422 27.12,-12.66 12.06,-15.071 32.55,-24.711 56.07,-24.711 28.93,0 50.63,16.871 50.63,39.781 0,19.289 -16.28,29.539 -37.37,36.777 l -40.39,13.864 c -46.42,13.859 -75.35,39.789 -75.35,82.578 0,51.851 40.99,90.42 101.26,90.42 36.78,0 72.35,-12.65 92.24,-49.428 7.84,-13.863 0.61,-24.711 -13.86,-27.73 l -11.46,-2.403 c -12.66,-3.617 -19.88,1.801 -28.33,12.653 -10.26,12.058 -23.51,15.679 -36.77,15.679 -26.52,0 -43.41,-16.281 -43.41,-37.371 0,-19.301 17.49,-29.539 34.97,-34.969 l 43.4,-14.48 c 57.87,-18.082 73.55,-53.652 73.55,-86.199 0,-57.871 -50.65,-91.024 -109.72,-91.024 -46.42,0 -89.22,19.891 -109.71,58.473" /><path
         id="path56"
         style="fill:#ffffff;fill-opacity:1;fill-rule:nonzero;stroke:none"
         d="m 2054.88,813.461 c -3.27,-13.191 -8.39,-24.563 -15.36,-34.102 -6.96,-9.539 -15.87,-16.949 -26.73,-22.218 -10.85,-5.282 -23.64,-7.922 -38.4,-7.922 -16.18,0 -29.69,2.89 -40.55,8.679 -10.85,5.782 -19.5,13.602 -25.96,23.442 -6.44,9.851 -11.05,21.359 -13.83,34.558 -2.76,13.192 -4.14,27.293 -4.14,42.321 0,15.621 1.69,30.043 5.07,43.23 3.38,13.199 8.55,24.621 15.51,34.262 6.97,9.641 15.83,17.098 26.58,22.379 10.75,5.262 23.6,7.91 38.56,7.91 16.18,0 29.69,-2.891 40.54,-8.668 10.86,-5.793 19.46,-13.66 25.81,-23.602 6.35,-9.949 10.91,-21.519 13.68,-34.71 2.76,-13.2 4.14,-27.2 4.14,-42.008 0,-15.84 -1.64,-30.364 -4.92,-43.551 z m 48.62,108.687 c -5.59,18.274 -13.96,33.801 -25.12,46.59 -11.16,12.793 -25.12,22.524 -41.87,29.231 -16.74,6.701 -36.37,10.051 -58.91,10.051 -23.34,0 -43.74,-3.76 -61.2,-11.27 -5.85,-2.52 -11.26,-5.512 -16.47,-8.711 v 150.821 c 0,13.87 -7.83,21.7 -21.71,21.7 h -18.08 c -13.86,0 -22.3,-7.83 -22.3,-21.7 V 857.461 l 0.1,0.168 c -0.01,-0.93 -0.1,-1.809 -0.1,-2.758 0,-23.141 2.75,-43.84 8.23,-62.109 5.47,-18.274 13.8,-33.801 24.97,-46.582 11.16,-12.801 25.11,-22.532 41.86,-29.231 16.75,-6.711 36.39,-10.058 58.92,-10.058 23.13,0 43.48,3.808 61.04,11.429 17.56,7.602 32.17,18.211 43.84,31.809 11.68,13.609 20.45,29.801 26.34,48.57 5.89,18.781 8.84,39.321 8.84,61.653 0,22.949 -2.8,43.539 -8.38,61.796" /><path
         id="path58"
         style="fill:none;stroke:#6198f5;stroke-width:40;stroke-linecap:butt;stroke-linejoin:miter;stroke-miterlimit:10;stroke-dasharray:none;stroke-opacity:1"
         d="m 2358.73,2567.25 c 349,-231.92 579.04,-628.63 579.04,-1079.07 0,-422.03 -201.93,-796.91 -514.46,-1033.25" /><path
         id="path60"
         style="fill:none;stroke:#6198f5;stroke-width:40;stroke-linecap:butt;stroke-linejoin:miter;stroke-miterlimit:10;stroke-dasharray:none;stroke-opacity:1"
         d="m 859.348,457.648 c -310.481,236.5 -510.871,610.112 -510.871,1030.532 0,445.18 224.699,837.88 566.871,1070.88" /><path
         id="path62"
         style="fill:none;stroke:#6198f5;stroke-width:2.5;stroke-linecap:butt;stroke-linejoin:miter;stroke-miterlimit:10;stroke-dasharray:none;stroke-opacity:1"
         d="M 1100.99,2053.45 816.664,1516.86" /><path
         id="path64"
         style="fill:none;stroke:#6198f5;stroke-width:2.5;stroke-linecap:butt;stroke-linejoin:miter;stroke-miterlimit:10;stroke-dasharray:none;stroke-opacity:1"
         d="M 1100.99,2053.45 841.871,1386.14" /><path
         id="path66"
         style="fill:none;stroke:#6198f5;stroke-width:2.5;stroke-linecap:butt;stroke-linejoin:miter;stroke-miterlimit:10;stroke-dasharray:none;stroke-opacity:1"
         d="m 910,1121.86 190.99,931.59" /><path
         id="path68"
         style="fill:none;stroke:#6198f5;stroke-width:2.5;stroke-linecap:butt;stroke-linejoin:miter;stroke-miterlimit:10;stroke-dasharray:none;stroke-opacity:1"
         d="M 994.414,824.84 1101.25,2048.53" /><path
         id="path70"
         style="fill:none;stroke:#6198f5;stroke-width:2.5;stroke-linecap:butt;stroke-linejoin:miter;stroke-miterlimit:10;stroke-dasharray:none;stroke-opacity:1"
         d="m 1095.54,776.871 7.79,1270.409" /><path
         id="path72"
         style="fill:none;stroke:#6198f5;stroke-width:2.5;stroke-linecap:butt;stroke-linejoin:miter;stroke-miterlimit:10;stroke-dasharray:none;stroke-opacity:1"
         d="M 1264.87,1022.26 1100.99,2053.45" /><path
         id="path74"
         style="fill:none;stroke:#6198f5;stroke-width:2.5;stroke-linecap:butt;stroke-linejoin:miter;stroke-miterlimit:10;stroke-dasharray:none;stroke-opacity:1"
         d="m 1388.24,1080.17 -287.25,973.28" /><path
         id="path76"
         style="fill:none;stroke:#6198f5;stroke-width:2.5;stroke-linecap:butt;stroke-linejoin:miter;stroke-miterlimit:10;stroke-dasharray:none;stroke-opacity:1"
         d="m 1679.38,1316.94 -507.32,728.9" /><path
         id="path78"
         style="fill:none;stroke:#6198f5;stroke-width:2.5;stroke-linecap:butt;stroke-linejoin:miter;stroke-miterlimit:10;stroke-dasharray:none;stroke-opacity:1"
         d="m 1795.51,1404.54 -627.18,642.32" /><path
         id="path80"
         style="fill:none;stroke:#6198f5;stroke-width:2.5;stroke-linecap:butt;stroke-linejoin:miter;stroke-miterlimit:10;stroke-dasharray:none;stroke-opacity:1"
         d="m 1844.24,1484.61 -672.18,561.23" /><path
         id="path82"
         style="fill:none;stroke:#6198f5;stroke-width:2.5;stroke-linecap:butt;stroke-linejoin:miter;stroke-miterlimit:10;stroke-dasharray:none;stroke-opacity:1"
         d="m 1870.57,1605.53 -698.51,440.31" /><path
         id="path84"
         style="fill:none;stroke:#6198f5;stroke-width:2.5;stroke-linecap:butt;stroke-linejoin:miter;stroke-miterlimit:10;stroke-dasharray:none;stroke-opacity:1"
         d="m 1955.58,1676.43 -783.52,369.41" /><path
         id="path86"
         style="fill:none;stroke:#6198f5;stroke-width:2.5;stroke-linecap:butt;stroke-linejoin:miter;stroke-miterlimit:10;stroke-dasharray:none;stroke-opacity:1"
         d="m 1974.86,1770.28 -803.61,278.67" /><path
         id="path88"
         style="fill:none;stroke:#6198f5;stroke-width:2.5;stroke-linecap:butt;stroke-linejoin:miter;stroke-miterlimit:10;stroke-dasharray:none;stroke-opacity:1"
         d="M 2422.38,1837.42 1171.25,2048.95" /><path
         id="path90"
         style="fill:none;stroke:#6198f5;stroke-width:2.5;stroke-linecap:butt;stroke-linejoin:miter;stroke-miterlimit:10;stroke-dasharray:none;stroke-opacity:1"
         d="m 2403.35,1997.19 -1231.29,54.2" /><path
         id="path92"
         style="fill:none;stroke:#6198f5;stroke-width:2.5;stroke-linecap:butt;stroke-linejoin:miter;stroke-miterlimit:10;stroke-dasharray:none;stroke-opacity:1"
         d="m 2381.75,2090.99 -1209.69,-39.6" /><path
         id="path94"
         style="fill:#e54a4b;fill-opacity:1;fill-rule:nonzero;stroke:none"
         d="m 1175.78,2060.03 100.86,-204.2 186.42,-1.9 28.6,-87.9 -171.28,2.14 275.65,-556.63 -78.92,3.66 -280.84,553.27 -189.06,1.81 -29.02,87.45 174.91,-1.49 -100.27,203.79 h 82.95" /></g></g></svg>